{"title":"The Hangover Part II (2011) DVDRip NL subs DutchReleaseTeam","uid":6759263,"size":737491924,"categoryP":"video","categoryS":"movies","magnet":"?xt=urn:btih:12e136560234f3c428d7ab313f05efa4b952c34d&amp;dn=The+Hangover+Part+II+%282011%29+DVDRip+NL+subs+DutchReleaseTeam&amp;tr=udp%3A%2F%2Ftracker.openbittorrent.com%3A80&amp;tr=udp%3A%2F%2Fopen.demonii.com%3A1337&amp;tr=udp%3A%2F%2Ftracker.coppersurfer.tk%3A6969&amp;tr=udp%3A%2F%2Fexodus.desync.com%3A6969","seeders":15,"leechers":4,"uploader":"Koedje","files":-1,"time":1319148766,"description":" &lt;a href=&quot;http://img9.imageshack.us/img9/7651/hangover2.jpg&quot; rel=&quot;nofollow&quot; target=&quot;_NEW&quot;&gt;http://img9.imageshack.us/img9/7651/hangover2.jpg&lt;/a&gt;\n\n\nVerenigde Staten\nKomedie\n102 minuten\n\ngeregisseerd door Todd Phillips\nmet Bradley Cooper, Zach Galifianakis en Ed Helms\n\nPhil, Stu, Alan en Doug reizen af naar het exotische Thailand voor de bruiloft van Stu. Na het onvergetelijke vrijgezellenfeest in Las Vegas wat uitliep op een grote ravage kiest Stu nu voor een veilige, ingetogen 'pre-bruiloft' brunch. Echter, dingen gaan (weer) niet zoals gepland. What happens in Vegas, may stay in Vegas, maar wat het gezelschap in Bangkok staat te wachten overtreft al hun verwachtingen...\n\n\nVertaald door Simply ReleaseS Toppers\nTokke, Winchestergirl, Biteme en Suurtje\n\n\n\n\nScreenshots:\n &lt;a href=&quot;\nhttp://img17.imageshack.us/img17/986/screenshot1gi.jpg&quot; rel=&quot;nofollow&quot; target=&quot;_NEW&quot;&gt;\nhttp://img17.imageshack.us/img17/986/screenshot1gi.jpg&lt;/a&gt;\n &lt;a href=&quot;\nhttp://img403.imageshack.us/img403/5408/screenshot2er.jpg&quot; rel=&quot;nofollow&quot; target=&quot;_NEW&quot;&gt;\nhttp://img403.imageshack.us/img403/5408/screenshot2er.jpg&lt;/a&gt;\n &lt;a href=&quot;\nhttp://img20.imageshack.us/img20/9644/screenshot3ki.jpg&quot; rel=&quot;nofollow&quot; target=&quot;_NEW&quot;&gt;\nhttp://img20.imageshack.us/img20/9644/screenshot3ki.jpg&lt;/a&gt;\n &lt;a href=&quot;\nhttp://img593.imageshack.us/img593/8797/screenshot4xo.jpg&quot; rel=&quot;nofollow&quot; target=&quot;_NEW&quot;&gt;\nhttp://img593.imageshack.us/img593/8797/screenshot4xo.jpg&lt;/a&gt;\n\n\n\n\nINFO;\n\n\nVideo\nID                                       : 0\nFormat                                   : MPEG-4 Visual\nFormat profile                           : Advanced Simple@L5\nFormat settings, BVOP                    : 1\nFormat settings, QPel                    : No\nFormat settings, GMC                     : No warppoints\nFormat settings, Matrix                  : Custom\nCodec ID                                 : XVID\nCodec ID/Hint                            : XviD\nDuration                                 : 1h 37mn\nBit rate                                 : 873 Kbps\nWidth                                    : 608 pixels\nHeight                                   : 256 pixels\nDisplay aspect ratio                     : 2.40:1\nFrame rate                               : 29.970 fps\nColor space                              : YUV\nChroma subsampling                       : 4:2:0\nBit depth                                : 8 bits\nScan type                                : Progressive\nCompression mode                         : Lossy\nBits/(Pixel*Frame)                       : 0.187\nStream size                              : 609 MiB (87%)\nWriting library                          : XviD 64\n\nAudio\nID                                       : 1\nFormat                                   : MPEG Audio\nFormat version                           : Version 1\nFormat profile                           : Layer 3\nMode                                     : Joint stereo\nMode extension                           : MS Stereo\nCodec ID                                 : 55\nCodec ID/Hint                            : MP3\nDuration                                 : 1h 37mn\nBit rate mode                            : Variable\nBit rate                                 : 115 Kbps\nNominal bit rate                         : 128 Kbps\nChannel(s)                               : 2 channels\nSampling rate                            : 48.0 KHz\nCompression mode                         : Lossy\nStream size                              : 79.9 MiB (11%)\nAlignment                                : Aligned on interleaves\nInterleave, duration                     : 24 ms (0.72 video frame)\nInterleave, preload duration             : 662 ms\nWriting library                          : LAME3.98r\n\n\n &lt;a href=&quot;\nhttp://www.imdb.com/title/tt1411697/&quot; rel=&quot;nofollow&quot; target=&quot;_NEW&quot;&gt;\nhttp://www.imdb.com/title/tt1411697/&lt;/a&gt; &lt;a href=&quot;\nhttp://www.moviemeter.nl/film/72141&quot; rel=&quot;nofollow&quot; target=&quot;_NEW&quot;&gt;\nhttp://www.moviemeter.nl/film/72141&lt;/a&gt;\n\n\n\n\nDeze film wordt u aangeboden door het DutchReleaseTeam.\nVoor de reviews van de nieuwste films, muziek, series, games etc\nga dan eens naar http://www.hetmultimediacafe.be\n\nDutchReleaseteam = Hardcoded Dutch Subs","torrent":{"xt":"urn:btih:12e136560234f3c428d7ab313f05efa4b952c34d","amp;dn":"The+Hangover+Part+II+%282011%29+DVDRip+NL+subs+DutchReleaseTeam","amp;tr":["udp%3A%2F%2Ftracker.openbittorrent.com%3A80","udp%3A%2F%2Fopen.demonii.com%3A1337","udp%3A%2F%2Ftracker.coppersurfer.tk%3A6969","udp%3A%2F%2Fexodus.desync.com%3A6969"],"infoHash":"12e136560234f3c428d7ab313f05efa4b952c34d","infoHashBuffer":{"type":"Buffer","data":[18,225,54,86,2,52,243,196,40,215,171,49,63,5,239,164,185,82,195,77]},"announce":[],"urlList":[]}}